<svg id="Слой_2" data-name="Слой 2" xmlns="http://www.w3.org/2000/svg" viewBox="0 0 101 101"><title>hhhArtboard 2 copy 3</title><path d="M96.87,65.37,59,27.54A5.21,5.21,0,0,0,55.33,26H30a4,4,0,0,0-4,4V40a22.32,22.32,0,0,1-4.61-3.55,19.83,19.83,0,0,1-5.68-10.25c-.61-3.39.11-6.3,2-8.2,4.08-4.07,12.35-2.42,18.44,3.67a1.5,1.5,0,0,0,2.12-2.12C31,12.31,20.83,10.66,15.59,15.9,13,18.52,12,22.37,12.75,26.75a22.83,22.83,0,0,0,6.51,11.84A24.79,24.79,0,0,0,26,43.41V55.33A5.21,5.21,0,0,0,27.54,59L65.37,96.87a1.5,1.5,0,0,0,2.12,0L96.87,67.49A1.5,1.5,0,0,0,96.87,65.37ZM66.43,93.69,29.66,56.92A2.24,2.24,0,0,1,29,55.33V44.58a18.61,18.61,0,0,0,2.11.52,16.05,16.05,0,0,0,2.82.26,11.06,11.06,0,0,0,8-3.1,1.5,1.5,0,0,0-2.12-2.12c-1.9,1.9-4.81,2.61-8.2,2A16.05,16.05,0,0,1,29,41.43V30a1,1,0,0,1,1-1H55.33a2.27,2.27,0,0,1,1.59.66L93.69,66.43Z"/><path d="M57.87,73.72a1.5,1.5,0,0,0,2.12,0L65.73,68l5.74,5.74a1.5,1.5,0,0,0,2.12-2.12l-5.74-5.74,5.74-5.74A1.5,1.5,0,0,0,71.46,58l-5.74,5.74L60,58a1.5,1.5,0,0,0-2.12,2.12l5.74,5.74L57.87,71.6A1.5,1.5,0,0,0,57.87,73.72Z"/><path d="M75.5,67h5a1.5,1.5,0,0,0,0-3h-5a1.5,1.5,0,0,0,0,3Z"/><path d="M55.5,64h-5a1.5,1.5,0,0,0,0,3h5a1.5,1.5,0,0,0,0-3Z"/><path d="M65.5,74A1.5,1.5,0,0,0,64,75.5v5a1.5,1.5,0,0,0,3,0v-5A1.5,1.5,0,0,0,65.5,74Z"/><path d="M65.5,58A1.5,1.5,0,0,0,67,56.5v-6a1.5,1.5,0,0,0-3,0v6A1.5,1.5,0,0,0,65.5,58Z"/></svg>