<?xml version="1.0" encoding="iso-8859-1"?>
<!-- Generator: Adobe Illustrator 21.1.0, SVG Export Plug-In . SVG Version: 6.00 Build 0)  -->
<svg version="1.1" id="Layer_1" xmlns="http://www.w3.org/2000/svg" xmlns:xlink="http://www.w3.org/1999/xlink" x="0px" y="0px"
	 viewBox="0 0 100.353 100.352" style="enable-background:new 0 0 100.353 100.352;" xml:space="preserve">
<g>
	<path d="M92.155,30.246v-0.004c0-0.004-0.001-0.007-0.001-0.011c-0.001-0.108-0.016-0.216-0.04-0.322
		c-0.008-0.034-0.019-0.066-0.029-0.099c-0.022-0.073-0.05-0.145-0.084-0.216c-0.018-0.037-0.037-0.074-0.058-0.109
		c-0.014-0.024-0.024-0.051-0.039-0.074c-0.027-0.04-0.06-0.073-0.09-0.11c-0.024-0.03-0.046-0.06-0.072-0.088
		c-0.077-0.082-0.16-0.155-0.251-0.216c-0.001-0.001-0.002-0.002-0.003-0.003l-0.001-0.001c-0.003-0.002-0.006-0.004-0.008-0.006
		L55.109,4.782c-0.504-0.335-1.159-0.335-1.663,0l-12.802,8.535c0,0-0.001,0.001-0.001,0.001L28.88,21.159
		c-0.161,0.071-0.312,0.168-0.442,0.295L8.525,34.73c-0.096,0.063-0.184,0.141-0.266,0.227c-0.026,0.028-0.048,0.058-0.072,0.088
		c-0.03,0.037-0.063,0.069-0.09,0.11c-0.016,0.023-0.025,0.049-0.039,0.073c-0.021,0.036-0.041,0.073-0.059,0.112
		c-0.033,0.069-0.06,0.14-0.082,0.212c-0.011,0.035-0.022,0.068-0.03,0.103c-0.023,0.102-0.037,0.205-0.038,0.309
		c0,0.008-0.003,0.015-0.003,0.022v0.008c0,0,0,0.001,0,0.001v33.761c0,0.502,0.251,0.971,0.669,1.249l36.377,24.212
		c0.005,0.003,0.01,0.004,0.015,0.007c0.105,0.068,0.22,0.119,0.34,0.16c0.03,0.01,0.059,0.02,0.089,0.028
		c0.124,0.033,0.252,0.056,0.386,0.056c0.134,0,0.262-0.023,0.386-0.057c0.03-0.008,0.06-0.018,0.089-0.028
		c0.123-0.041,0.241-0.093,0.347-0.163c0.003-0.002,0.006-0.003,0.009-0.004l0.006-0.004c0.001,0,0.001-0.001,0.002-0.001
		l44.924-29.95c0.417-0.278,0.668-0.746,0.668-1.248V30.253C92.155,30.251,92.155,30.248,92.155,30.246z M54.279,7.832l33.67,22.411
		l-10.649,7.1L44.131,14.598L54.279,7.832z M45.723,58.395L12.051,35.984l17.445-11.63l33.17,22.745L45.723,58.395z M41.441,16.391
		L74.61,39.136l-9.255,6.17l-33.17-22.745L41.441,16.391z M66.812,47.94l8.905-5.937L75.4,56.137l-8.588,5.634V47.94z
		 M10.846,38.785l33.377,22.216v30.166L10.846,68.952V38.785z M47.223,91.165V61l16.589-11.06v14.609
		c0,0.551,0.303,1.058,0.787,1.32c0.224,0.12,0.469,0.18,0.713,0.18c0.287,0,0.574-0.082,0.823-0.246l11.57-7.591
		c0.412-0.271,0.665-0.727,0.677-1.221l0.381-17.019l10.392-6.928V63.21L47.223,91.165z"/>
	<path d="M41.479,68.453c0.485,0,0.961-0.234,1.25-0.669c0.459-0.689,0.272-1.621-0.417-2.08L25.126,54.265
		c-0.69-0.459-1.622-0.273-2.08,0.418c-0.459,0.689-0.272,1.621,0.417,2.08L40.65,68.202C40.905,68.372,41.194,68.453,41.479,68.453
		z"/>
	<path d="M42.312,73.529l-9.842-6.551c-0.69-0.459-1.622-0.272-2.08,0.418c-0.459,0.689-0.272,1.621,0.417,2.08l9.842,6.551
		c0.255,0.17,0.544,0.251,0.83,0.251c0.485,0,0.961-0.234,1.25-0.669C43.188,74.919,43.001,73.988,42.312,73.529z"/>
</g>
</svg>
