<?xml version="1.0" encoding="iso-8859-1"?>
<!-- Generator: Adobe Illustrator 22.0.1, SVG Export Plug-In . SVG Version: 6.00 Build 0)  -->
<svg version="1.1" id="Layer_1" xmlns="http://www.w3.org/2000/svg" xmlns:xlink="http://www.w3.org/1999/xlink" x="0px" y="0px"
	 viewBox="0 0 100.25 100.25" style="enable-background:new 0 0 100.25 100.25;" xml:space="preserve">
<g>
	<path d="M66.702,7.999c-7.164,0-13.579,3.976-16.732,10.032c-3.178-5.989-9.568-9.92-16.673-9.92
		c-10.365,0-18.798,8.245-18.798,18.379c0,4.704,1.716,9.062,4.832,12.272c6.231,6.422,24.087,23.521,28.592,27.827l-7.919,7.039
		c-0.465,0.414-0.627,1.072-0.405,1.654c0.221,0.582,0.779,0.967,1.402,0.967h7.592c-0.056,0.157-0.092,0.324-0.092,0.5v4.881
		c0,1.806-1.57,3.274-3.5,3.274c-3.584,0-6.5,2.814-6.5,6.273v4.571c0,0.828,0.671,1.5,1.5,1.5s1.5-0.672,1.5-1.5v-4.571
		c0-1.805,1.57-3.273,3.5-3.273c3.584,0,6.5-2.814,6.5-6.274v-4.88c0-0.176-0.036-0.343-0.092-0.5H59
		c0.623,0,1.181-0.385,1.402-0.967s0.06-1.24-0.406-1.654l-7.923-7.043c4.484-4.313,22.275-21.45,28.515-27.85
		c3.168-3.248,4.912-7.637,4.912-12.358C85.5,16.244,77.067,7.999,66.702,7.999z M44.945,73.25L50,68.757l5.055,4.493H44.945z
		 M78.439,36.642c-6.208,6.368-23.961,23.469-28.444,27.78c-4.497-4.3-22.316-21.363-28.512-27.749
		c-2.569-2.647-3.984-6.264-3.984-10.183c0-8.48,7.087-15.379,15.798-15.379c7.127,0,13.395,4.686,15.242,11.394
		c0.179,0.651,0.771,1.102,1.446,1.102c0.001,0,0.003,0,0.005,0c0.677-0.002,1.269-0.458,1.443-1.112
		c1.812-6.769,8.091-11.496,15.269-11.496c8.711,0,15.798,6.899,15.798,15.379C82.5,30.312,81.058,33.957,78.439,36.642z"/>
	<path d="M26.5,26.087C26.5,22.73,29.416,20,33,20c0.829,0,1.5-0.671,1.5-1.5S33.829,17,33,17c-5.238,0-9.5,4.076-9.5,9.087
		c0,2.473,1.02,4.786,2.872,6.511C26.661,32.867,27.027,33,27.394,33c0.402,0,0.803-0.161,1.098-0.478
		c0.564-0.606,0.531-1.555-0.075-2.12C27.181,29.251,26.5,27.718,26.5,26.087z"/>
	<path d="M34.061,36.939c-0.586-0.586-1.535-0.586-2.121,0c-0.586,0.585-0.586,1.536,0,2.121l6,6c0.292,0.294,0.676,0.44,1.06,0.44
		s0.768-0.146,1.061-0.439c0.586-0.585,0.586-1.536,0-2.121L34.061,36.939z"/>
</g>
</svg>
