<?xml version="1.0" encoding="iso-8859-1"?>
<!-- Generator: Adobe Illustrator 21.1.0, SVG Export Plug-In . SVG Version: 6.00 Build 0)  -->
<svg version="1.1" id="Layer_1" xmlns="http://www.w3.org/2000/svg" xmlns:xlink="http://www.w3.org/1999/xlink" x="0px" y="0px"
	 viewBox="0 0 100.353 100.352" style="enable-background:new 0 0 100.353 100.352;" xml:space="preserve">
<g>
	<path d="M82.202,38.229c0.113-17.691-14.187-32.176-31.877-32.29c-17.714-0.105-32.176,14.187-32.29,31.877
		c-0.082,12.795,7.377,23.908,18.203,29.125l0.105,27.948c0.002,0.6,0.361,1.14,0.913,1.374c0.189,0.081,0.389,0.12,0.587,0.12
		c0.379,0,0.752-0.144,1.037-0.415l11.086-10.589l11.161,10.515c0.436,0.412,1.078,0.521,1.625,0.284
		c0.55-0.238,0.905-0.781,0.903-1.381L63.56,67.145C74.487,62.08,82.12,51.048,82.202,38.229z M60.643,91.317l-9.657-9.097
		c-0.58-0.547-1.487-0.544-2.064,0.007l-9.592,9.162l-0.087-23.187c3.336,1.206,6.925,1.88,10.669,1.904
		c0.07,0,0.139,0.001,0.209,0.001c3.654,0,7.165-0.623,10.442-1.755L60.643,91.317z M50.121,67.107
		c-0.062,0-0.127-0.001-0.189-0.001c-16.037-0.103-29-13.233-28.896-29.271c0.103-15.974,13.13-28.897,29.081-28.897
		c0.062,0,0.127,0,0.189,0c16.036,0.104,28.999,13.234,28.896,29.271C79.1,54.183,66.072,67.107,50.121,67.107z"/>
	<path d="M64.701,33.413l-9.12-1.384l-4.026-8.294c-0.249-0.514-0.769-0.841-1.339-0.845c-0.003,0-0.006,0-0.01,0
		c-0.567,0-1.086,0.32-1.341,0.828l-4.132,8.242L35.6,33.226c-0.565,0.079-1.038,0.471-1.217,1.013
		c-0.18,0.542-0.037,1.139,0.37,1.54l6.561,6.479l-1.616,9.078c-0.1,0.562,0.127,1.132,0.587,1.471
		c0.46,0.339,1.072,0.386,1.579,0.124l8.187-4.238l8.137,4.343c0.222,0.118,0.464,0.177,0.706,0.177
		c0.308,0,0.614-0.095,0.874-0.281c0.464-0.332,0.699-0.899,0.606-1.463l-1.5-9.098l6.644-6.395c0.411-0.396,0.562-0.991,0.39-1.535
		C65.733,33.898,65.267,33.499,64.701,33.413z M56.225,40.757c-0.355,0.342-0.521,0.837-0.44,1.325l1.134,6.877l-6.151-3.284
		c-0.221-0.118-0.464-0.177-0.707-0.177c-0.237,0-0.473,0.056-0.689,0.168l-6.188,3.203l1.221-6.862
		c0.087-0.486-0.071-0.983-0.423-1.33l-4.959-4.897l6.904-0.958c0.489-0.068,0.914-0.372,1.135-0.813l3.123-6.229l3.043,6.269
		c0.216,0.444,0.637,0.754,1.125,0.828l6.895,1.046L56.225,40.757z"/>
</g>
</svg>
