<svg id="nortonSecured-verisign_copy" data-name="nortonSecured-verisign copy" xmlns="http://www.w3.org/2000/svg" viewBox="0 0 293.87 157.92"><defs><style>.cls-1{fill:#cfcfcf;}.cls-2{fill:#1d1d1b;}.cls-3{fill:#b1b1b1;}.cls-4{fill:#fcc200;}</style></defs><title>norton-secured</title><path class="cls-1" d="M518.87,337.79H328.35a49.6,49.6,0,0,1,0-99.21H518.87a49.6,49.6,0,0,1,0,99.21M328.35,242.48a45.71,45.71,0,1,0,0,91.42H518.87a45.71,45.71,0,0,0,0-91.42H328.35Z" transform="translate(-274.6 -218.11)"/><path class="cls-2" d="M496,260.43a13.39,13.39,0,1,0,13.39,13.4A13.4,13.4,0,0,0,496,260.43m0,20.27a6.87,6.87,0,1,1,6.87-6.87A6.87,6.87,0,0,1,496,280.7" transform="translate(-274.6 -218.11)"/><path class="cls-2" d="M434.59,260.43a13.39,13.39,0,1,0,13.4,13.4,13.39,13.39,0,0,0-13.4-13.4m0,20.27a6.87,6.87,0,1,1,6.87-6.87,6.87,6.87,0,0,1-6.87,6.87" transform="translate(-274.6 -218.11)"/><path class="cls-2" d="M481.76,281.07a13.38,13.38,0,0,1-2.64.49c-2.29,0-2.79-.79-2.79-3V266.21h5.48V261h-5.48v-7.31h-6.16l-1.3,7.31h-4.64c-3.51,0-6.16,2.16-7.86,5.51L454.24,261h-4.42v25.7h7.55V275.55c0-5.64,3.33-9.24,7.27-9.35h4.13V279c0,6,3.08,8.25,8.11,8.25a18,18,0,0,0,5.76-.94Z" transform="translate(-274.6 -218.11)"/><polyline class="cls-2" points="243.96 51.05 243.96 68.62 236.61 68.62 236.61 42.92 241.07 42.92 242.56 46.85"/><path class="cls-2" d="M517.13,265a11.89,11.89,0,0,1,8.86-4.55c6.12,0,8.63,4.87,8.63,9.4v16.9h-7.56V270c0-2.2-1.83-3.4-3.83-3.4s-3.48,1.21-4.67,2.51" transform="translate(-274.6 -218.11)"/><polygon class="cls-2" points="117.13 33.62 125.55 33.62 137.1 55.63 137.1 33.62 144.07 33.62 144.07 68.63 136.45 68.63 124.11 44.42 124.11 68.63 117.13 68.63 117.13 33.62"/><polygon class="cls-3" points="282.33 20.47 282.33 21.73 280.5 21.73 280.5 27.89 279.06 27.89 279.06 21.73 277.27 21.73 277.27 20.47 282.33 20.47"/><polygon class="cls-3" points="283.36 27.89 283.36 20.47 285.29 20.47 286.58 25.33 287.89 20.47 289.84 20.47 289.84 27.89 288.66 27.89 288.66 22.09 288.63 22.09 287.13 27.89 286.08 27.89 284.57 22.09 284.54 22.09 284.54 27.89 283.36 27.89"/><path class="cls-3" d="M389.64,317.77l1.75-2.72a10.38,10.38,0,0,0,6.14,2c2.52,0,4.08-1.15,4.08-3.13,0-2.29-2-2.89-5.2-4-2.9-1-5.76-2.48-5.76-6.59,0-3.85,3-5.95,7.13-5.95a12.07,12.07,0,0,1,6.33,1.48l-1.4,2.89a10.43,10.43,0,0,0-4.87-1.18c-2.28,0-3.64.86-3.64,2.66,0,2.12,1.58,2.66,4.56,3.64s6.52,2.44,6.52,7c0,3.85-2.75,6.39-7.69,6.39a12.89,12.89,0,0,1-7.95-2.5" transform="translate(-274.6 -218.11)"/><polygon class="cls-3" points="137.3 79.62 150.53 79.62 150.53 82.69 141.07 82.69 141.07 88.76 148.54 88.76 148.54 91.77 141.07 91.77 141.07 98.79 151.11 98.79 151.11 101.86 137.3 101.86 137.3 79.62"/><path class="cls-3" d="M431.1,308.87c0-6.49,3.11-11.49,9.31-11.49a8.12,8.12,0,0,1,6.52,2.68l-2.19,2.54a5.54,5.54,0,0,0-4.26-1.94c-3.64,0-5.32,3-5.32,8.48,0,5.17,1.77,7.79,5.36,7.79a6.22,6.22,0,0,0,4.61-2.34l2.22,2.47a8.36,8.36,0,0,1-6.86,3.2c-6.39,0-9.37-4.88-9.37-11.4" transform="translate(-274.6 -218.11)"/><path class="cls-3" d="M453.46,311.46V297.73h3.79v14.35c0,3.05.76,5.06,4,5.06s4-2,4-5.06V297.73h3.83v13.73c0,5.51-2.12,8.81-7.85,8.81s-7.75-3.29-7.75-8.81" transform="translate(-274.6 -218.11)"/><path class="cls-3" d="M492.28,320h-4.11l-4.27-9.43h-3.52V320h-3.76V297.73h7.26c4.49,0,8,1.61,8,6.49a5.79,5.79,0,0,1-4.21,5.79Zm-8.54-12.34c2.82,0,4.27-.92,4.27-3.49s-1.48-3.35-4-3.35h-3.58v6.84h3.36Z" transform="translate(-274.6 -218.11)"/><polygon class="cls-3" points="224.12 79.62 237.35 79.62 237.35 82.69 227.88 82.69 227.88 88.76 235.34 88.76 235.34 91.77 227.88 91.77 227.88 98.79 237.91 98.79 237.91 101.86 224.12 101.86 224.12 79.62"/><path class="cls-3" d="M518.88,297.73h5.56c7.25,0,10.74,3.93,10.74,11S531.62,320,524.63,320h-5.75V297.73Zm5.34,19.18c5.19,0,7-2.4,7-8.13,0-5-1.39-8-6.5-8h-2v16.1h1.56Z" transform="translate(-274.6 -218.11)"/><path class="cls-4" d="M328.12,341.71a53.52,53.52,0,1,1,53.52-53.52,53.58,53.58,0,0,1-53.52,53.52m0-90.11A36.6,36.6,0,1,0,354,262.31a36.39,36.39,0,0,0-25.87-10.72" transform="translate(-274.6 -218.11)"/><rect class="cls-4" x="111.82" y="8.31" width="4.17" height="4.17"/><rect class="cls-4" x="111.82" width="4.17" height="4.18"/><rect class="cls-4" x="100.08" y="12.46" width="3.9" height="4.07"/><rect class="cls-2" x="92.35" y="20.46" width="3.93" height="3.9"/><rect class="cls-2" x="103.97" y="16.53" width="4.37" height="3.93"/><rect class="cls-2" x="88.44" y="16.72" width="3.92" height="3.73"/><rect class="cls-2" x="100.08" y="20.46" width="3.9" height="3.9"/><rect class="cls-2" x="107.69" y="4.18" width="4.13" height="4.13"/><rect class="cls-2" x="100.08" y="8.31" width="7.61" height="4.14"/><rect class="cls-2" x="96.28" y="12.46" width="3.79" height="8"/><path class="cls-2" d="M370.89,242.47v3.93H367v-3.93h-6.52v2.83h-3.5v3.49h3.9v3.89h-3.9v-3.89h-4.15v6.1h-3.92v3.89h-2.6v3.91h-2.86c-3.21,4.78-11.27,19.68-13.71,25.75-8.78-12.22-15.59-17.06-21-18.81-2.89-.87-6.38,2.28-1.57,7.24,11,12.15,14.52,22.21,17.88,30.23,1.78,4.23,9.74,4.89,11.34.58a130,130,0,0,1,14.17-27.74v-4.35h3.11v-3.93h3.27v-4.55h3.92v-4.39h-4v-4h4v4h3.87v-3.95h3.1V254h3.5v-3.28h3.36v-8.27h-3.79Z" transform="translate(-274.6 -218.11)"/><path class="cls-3" d="M295.24,360.14H298v2a4.85,4.85,0,0,1,4.12-2.28c2.87,0,5.66,2.28,5.66,6.3v0c0,4-2.76,6.3-5.66,6.3A5,5,0,0,1,298,370.4V376h-2.78V360.14Zm9.73,6.09v0a3.6,3.6,0,0,0-3.47-3.89,3.66,3.66,0,0,0-3.54,3.89v0a3.65,3.65,0,0,0,3.54,3.89C303.4,370.12,305,368.63,305,366.24Z" transform="translate(-274.6 -218.11)"/><path class="cls-3" d="M310,366.28v0a6.47,6.47,0,0,1,12.95,0v0a6.35,6.35,0,0,1-6.51,6.32A6.28,6.28,0,0,1,310,366.28Zm10.16,0v0a3.75,3.75,0,0,0-3.73-3.91,3.64,3.64,0,0,0-3.66,3.86v0a3.76,3.76,0,0,0,3.7,3.91A3.66,3.66,0,0,0,320.15,366.28Z" transform="translate(-274.6 -218.11)"/><path class="cls-3" d="M324.17,360.14H327l2.44,8.32,2.69-8.37h2.37l2.71,8.37,2.48-8.32h2.78l-4,12.23H336l-2.71-8.3-2.74,8.3h-2.48Z" transform="translate(-274.6 -218.11)"/><path class="cls-3" d="M343.75,366.26v0a6,6,0,0,1,5.93-6.32c3.86,0,5.82,3,5.82,6.53,0,0.25,0,.51,0,0.78h-8.92a3.39,3.39,0,0,0,3.5,3.08,4.41,4.41,0,0,0,3.29-1.45l1.63,1.45a6.14,6.14,0,0,1-5,2.28A6.06,6.06,0,0,1,343.75,366.26Zm9-.9c-0.18-1.79-1.24-3.2-3.08-3.2s-2.9,1.31-3.15,3.2h6.23Z" transform="translate(-274.6 -218.11)"/><path class="cls-3" d="M358.31,360.14h2.78v2.74a4.31,4.31,0,0,1,4.3-3v2.94h-0.16c-2.44,0-4.14,1.59-4.14,4.81v4.62h-2.78V360.14Z" transform="translate(-274.6 -218.11)"/><path class="cls-3" d="M366.72,366.26v0a6,6,0,0,1,5.93-6.32c3.86,0,5.82,3,5.82,6.53,0,0.25,0,.51,0,0.78h-8.92a3.39,3.39,0,0,0,3.5,3.08,4.41,4.41,0,0,0,3.29-1.45l1.63,1.45a6.14,6.14,0,0,1-5,2.28A6.06,6.06,0,0,1,366.72,366.26Zm9-.9c-0.18-1.79-1.24-3.2-3.08-3.2s-2.9,1.31-3.15,3.2h6.23Z" transform="translate(-274.6 -218.11)"/><path class="cls-3" d="M380.66,366.24v0c0-4,2.74-6.3,5.63-6.3a5,5,0,0,1,4.14,2.14V355.5h2.78v16.79h-2.78v-2a4.86,4.86,0,0,1-4.14,2.28C383.44,372.54,380.66,370.26,380.66,366.24Zm9.82,0v0A3.64,3.64,0,0,0,387,362.3a3.56,3.56,0,0,0-3.5,3.89v0a3.61,3.61,0,0,0,3.5,3.89A3.66,3.66,0,0,0,390.48,366.24Z" transform="translate(-274.6 -218.11)"/><path class="cls-3" d="M406.38,370.4v1.89h-2.78V355.5h2.78v6.67a4.85,4.85,0,0,1,4.12-2.28c2.87,0,5.66,2.28,5.66,6.3v0c0,4-2.76,6.3-5.66,6.3A5,5,0,0,1,406.38,370.4Zm6.94-4.16v0a3.6,3.6,0,0,0-3.47-3.89,3.66,3.66,0,0,0-3.54,3.89v0a3.65,3.65,0,0,0,3.54,3.89C411.76,370.12,413.32,368.63,413.32,366.24Z" transform="translate(-274.6 -218.11)"/><path class="cls-3" d="M418,375.3l0.94-2.07a3.42,3.42,0,0,0,1.63.46c0.78,0,1.26-.34,1.73-1.4l-5.06-12.14h3l3.45,9,3.15-9h2.9l-4.83,12.49c-1,2.48-2,3.4-4,3.4A5.67,5.67,0,0,1,418,375.3Z" transform="translate(-274.6 -218.11)"/><path d="M450.43,369.65a4.37,4.37,0,0,1-1.21,1.56,5.45,5.45,0,0,1-1.85,1,8.08,8.08,0,0,1-2.39.33,10.65,10.65,0,0,1-3.61-.63,9.56,9.56,0,0,1-3.22-1.94l2.09-2.51a10.48,10.48,0,0,0,2.27,1.43,6.06,6.06,0,0,0,2.54.53,3.1,3.1,0,0,0,1.71-.4,1.27,1.27,0,0,0,.61-1.12v0a1.4,1.4,0,0,0-.13-0.61,1.29,1.29,0,0,0-.48-0.5,5.2,5.2,0,0,0-1-.46q-0.63-.23-1.65-0.48a20.12,20.12,0,0,1-2.21-.67,6.21,6.21,0,0,1-1.68-.91,3.68,3.68,0,0,1-1.07-1.34,4.67,4.67,0,0,1-.38-2v0a4.68,4.68,0,0,1,.41-2,4.54,4.54,0,0,1,1.15-1.53,5.2,5.2,0,0,1,1.77-1,7.15,7.15,0,0,1,2.27-.34,9.63,9.63,0,0,1,3.25.53,9.45,9.45,0,0,1,2.73,1.52l-1.84,2.67a11.73,11.73,0,0,0-2.12-1.16,5.42,5.42,0,0,0-2.07-.43,2.51,2.51,0,0,0-1.55.4,1.22,1.22,0,0,0-.52,1v0a1.44,1.44,0,0,0,.15.68,1.36,1.36,0,0,0,.54.52,5.07,5.07,0,0,0,1.07.44q0.68,0.21,1.72.48a16.51,16.51,0,0,1,2.18.72,6.06,6.06,0,0,1,1.61,1,3.69,3.69,0,0,1,1,1.32,4.49,4.49,0,0,1,.33,1.82v0A5,5,0,0,1,450.43,369.65Z" transform="translate(-274.6 -218.11)"/><path d="M460.57,372.58a9.54,9.54,0,0,1-.74,1.6,4.4,4.4,0,0,1-.86,1.07,2.9,2.9,0,0,1-1.07.6,4.72,4.72,0,0,1-1.38.18,5.72,5.72,0,0,1-1.7-.23,6.78,6.78,0,0,1-1.4-.62l1.17-2.53a3.9,3.9,0,0,0,.75.34,2.32,2.32,0,0,0,.75.14,1.32,1.32,0,0,0,.72-0.17,1.59,1.59,0,0,0,.49-0.63L452.47,360h3.7l2.81,8.4,2.69-8.4h3.63Z" transform="translate(-274.6 -218.11)"/><path d="M482.69,372.28v-6.86a2.85,2.85,0,0,0-.53-1.87,1.87,1.87,0,0,0-1.52-.63,2,2,0,0,0-1.55.63,2.72,2.72,0,0,0-.56,1.87v6.86H475v-6.86a2.85,2.85,0,0,0-.53-1.87,1.87,1.87,0,0,0-1.52-.63,2,2,0,0,0-1.55.63,2.73,2.73,0,0,0-.56,1.87v6.86h-3.5V360h3.5v1.76a7.42,7.42,0,0,1,.66-0.75,4.58,4.58,0,0,1,.79-0.64,3.89,3.89,0,0,1,1-.44,4.6,4.6,0,0,1,3.31.35A3.45,3.45,0,0,1,478,361.7a5.61,5.61,0,0,1,1.79-1.47,4.94,4.94,0,0,1,2.25-.5,4,4,0,0,1,3.06,1.15,4.71,4.71,0,0,1,1.1,3.38v8h-3.5Z" transform="translate(-274.6 -218.11)"/><path d="M496.45,372.28V371a4.87,4.87,0,0,1-1.54,1.14,5.08,5.08,0,0,1-2.19.43,5.47,5.47,0,0,1-1.64-.24,3.85,3.85,0,0,1-1.34-.72,3.46,3.46,0,0,1-.91-1.18,3.74,3.74,0,0,1-.33-1.62v0a3.86,3.86,0,0,1,.37-1.75,3.35,3.35,0,0,1,1-1.22,4.59,4.59,0,0,1,1.56-.72,7.82,7.82,0,0,1,2-.24,8.62,8.62,0,0,1,1.64.14,10.23,10.23,0,0,1,1.37.37v-0.21a2.1,2.1,0,0,0-.67-1.68,3,3,0,0,0-2-.57A8.2,8.2,0,0,0,492,363a12,12,0,0,0-1.62.5l-0.87-2.67a13.71,13.71,0,0,1,2.12-.71,11.17,11.17,0,0,1,2.67-.28,4.79,4.79,0,0,1,5.5,5.31v7.15h-3.38Zm0.07-5a5.36,5.36,0,0,0-1-.33,5.52,5.52,0,0,0-1.21-.13,3.12,3.12,0,0,0-1.77.44,1.44,1.44,0,0,0-.64,1.27v0a1.29,1.29,0,0,0,.53,1.1,2.26,2.26,0,0,0,1.38.39,3.09,3.09,0,0,0,2-.6,1.91,1.91,0,0,0,.75-1.56v-0.62Z" transform="translate(-274.6 -218.11)"/><path d="M510.64,372.28v-6.86a2.76,2.76,0,0,0-.55-1.87,2,2,0,0,0-1.56-.63,2.08,2.08,0,0,0-1.6.63,2.66,2.66,0,0,0-.59,1.87v6.86h-3.5V360h3.5v1.76A7.42,7.42,0,0,1,507,361a4.58,4.58,0,0,1,.79-0.64,3.94,3.94,0,0,1,1-.44,4.07,4.07,0,0,1,1.2-.16,3.94,3.94,0,0,1,3.09,1.22,4.85,4.85,0,0,1,1.09,3.36v8h-3.5Z" transform="translate(-274.6 -218.11)"/><path d="M522.87,372.3a5.51,5.51,0,0,1-1.54.2,5.72,5.72,0,0,1-1.46-.17,2.58,2.58,0,0,1-1.13-.61,2.92,2.92,0,0,1-.74-1.14,5.1,5.1,0,0,1-.26-1.78v-5.84h-1.47v-3h1.47v-3.15h3.5V360h2.9v3h-2.9v5.27a1,1,0,0,0,1.13,1.2,3.57,3.57,0,0,0,1.73-.44v2.81A5.42,5.42,0,0,1,522.87,372.3Z" transform="translate(-274.6 -218.11)"/><path d="M538.2,366.9q0,0.18,0,.44h-8.58a2.94,2.94,0,0,0,1,1.81,3.13,3.13,0,0,0,2,.61,3.9,3.9,0,0,0,1.56-.3,5.32,5.32,0,0,0,1.43-1l2,1.77a6.19,6.19,0,0,1-2.12,1.69,6.56,6.56,0,0,1-2.92.61,7,7,0,0,1-2.56-.46,5.93,5.93,0,0,1-2-1.31,6.07,6.07,0,0,1-1.35-2,6.67,6.67,0,0,1-.48-2.59v0a6.9,6.9,0,0,1,.45-2.48,6.32,6.32,0,0,1,1.25-2,5.85,5.85,0,0,1,4.39-1.89,6,6,0,0,1,2.67.55,5.42,5.42,0,0,1,1.88,1.48,6.17,6.17,0,0,1,1.1,2.14,8.83,8.83,0,0,1,.36,2.52v0C538.21,366.63,538.21,366.78,538.2,366.9ZM534,363.26a2.29,2.29,0,0,0-1.77-.72,2.35,2.35,0,0,0-1.78.71,3.59,3.59,0,0,0-.89,1.91h5.27A3.4,3.4,0,0,0,534,363.26Z" transform="translate(-274.6 -218.11)"/><path d="M549.62,371.93a6.18,6.18,0,0,1-3,.63,6.45,6.45,0,0,1-2.56-.51,6.2,6.2,0,0,1-3.37-3.39,6.37,6.37,0,0,1-.48-2.47v0a6.46,6.46,0,0,1,.48-2.48,6.39,6.39,0,0,1,1.33-2,6.18,6.18,0,0,1,2-1.38,6.59,6.59,0,0,1,2.61-.51,6.69,6.69,0,0,1,2.9.55,6.5,6.5,0,0,1,2,1.52l-2.14,2.3a5.72,5.72,0,0,0-1.23-1,3.09,3.09,0,0,0-1.58-.37,2.7,2.7,0,0,0-1.21.26,3,3,0,0,0-.94.72,3.29,3.29,0,0,0-.62,1.07,3.8,3.8,0,0,0-.22,1.3v0a4,4,0,0,0,.22,1.33,3.17,3.17,0,0,0,.63,1.08,3,3,0,0,0,1,.72,3,3,0,0,0,1.29.26,3.14,3.14,0,0,0,1.53-.36,6.46,6.46,0,0,0,1.3-1l2,2.07A7.87,7.87,0,0,1,549.62,371.93Z" transform="translate(-274.6 -218.11)"/></svg>